<svg xmlns="http://www.w3.org/2000/svg" version="1.1" xmlns:xlink="http://www.w3.org/1999/xlink" xmlns:svgjs="http://svgjs.dev/svgjs" width="2000" height="373" viewBox="0 0 2000 373"><g transform="matrix(1,0,0,1,9.200872301173376,8.574575162648301)"><svg viewBox="0 0 396 74" data-background-color="#1d366f" preserveAspectRatio="xMidYMid meet" height="373" width="2000" xmlns="http://www.w3.org/2000/svg" xmlns:xlink="http://www.w3.org/1999/xlink"><g id="tight-bounds" transform="matrix(1,0,0,1,0.2400000000000091,0.374599670950829)"><svg viewBox="0 0 395.52 73.25080065809837" height="73.25080065809837" width="395.52"><g><svg viewBox="0 0 571.6447893109357 105.8693328" height="73.25080065809837" width="395.52"><g transform="matrix(1,0,0,1,176.12478931093574,6.057744326312367)"><svg viewBox="0 0 395.5199999999999 93.75384414737526" height="93.75384414737526" width="395.5199999999999"><g id="textblocktransform"><svg viewBox="0 0 395.5199999999999 93.75384414737526" height="93.75384414737526" width="395.5199999999999" id="textblock"><g><svg viewBox="0 0 395.5199999999999 93.75384414737526" height="93.75384414737526" width="395.5199999999999"><g transform="matrix(1,0,0,1,0,0)"><svg width="395.5199999999999" viewBox="3.8 -35.75 153.33999999999997 36.35" height="93.75384414737526" data-palette-color="#ffffff"><path d="M12.9 0L3.8 0 3.8-33.4 12.9-33.4Q16.9-33.4 20.23-32.58 23.55-31.75 26-29.85 28.45-27.95 29.8-24.73 31.15-21.5 31.15-16.75L31.15-16.75Q31.15-11.95 29.8-8.72 28.45-5.5 26-3.58 23.55-1.65 20.23-0.83 16.9 0 12.9 0L12.9 0ZM8.5-29.45L8.5-3.95 12.8-3.95Q15.4-3.95 17.82-4.38 20.25-4.8 22.18-6.08 24.1-7.35 25.23-9.93 26.35-12.5 26.35-16.75L26.35-16.75Q26.35-21 25.23-23.53 24.1-26.05 22.18-27.33 20.25-28.6 17.82-29.03 15.4-29.45 12.8-29.45L12.8-29.45 8.5-29.45ZM41.45-29.5L41.45-29.5Q40.2-29.5 39.27-30.43 38.35-31.35 38.35-32.65L38.35-32.65Q38.35-33.95 39.27-34.85 40.2-35.75 41.45-35.75L41.45-35.75Q42.75-35.75 43.67-34.85 44.6-33.95 44.6-32.65L44.6-32.65Q44.6-31.35 43.67-30.43 42.75-29.5 41.45-29.5ZM43.55 0L39.35 0 39.35-21.45 35.9-21.45 35.9-24.8 43.55-24.8 43.55 0ZM55.25 0L51.05 0 51.05-24.8 54.15-24.8 55.25-21.05Q56.3-22.8 58.12-24 59.95-25.2 62.7-25.2L62.7-25.2Q65.55-25.2 67.3-24.05 69.05-22.9 69.84-20.85L69.84-20.85Q71.34-23.15 73.47-24.18 75.59-25.2 78.2-25.2L78.2-25.2Q82.5-25.2 84.34-22.58 86.2-19.95 86.2-15.7L86.2-15.7 86.2 0 82 0 82-14.45Q82-16.35 81.62-17.98 81.25-19.6 80.12-20.6 79-21.6 76.7-21.6L76.7-21.6Q74-21.6 72.37-19.53 70.75-17.45 70.75-13.45L70.75-13.45 70.75 0 66.55 0 66.55-14.45Q66.55-16.35 66.17-17.98 65.8-19.6 64.67-20.6 63.55-21.6 61.25-21.6L61.25-21.6Q58.55-21.6 56.9-19.53 55.25-17.45 55.25-13.45L55.25-13.45 55.25 0ZM103.09 0.6L103.09 0.6Q99.19 0.6 96.49-1.13 93.79-2.85 92.37-5.78 90.94-8.7 90.94-12.35L90.94-12.35Q90.94-16.3 92.54-19.18 94.14-22.05 96.87-23.63 99.59-25.2 102.99-25.2L102.99-25.2Q105.94-25.2 108.19-24.03 110.44-22.85 111.92-20.88 113.39-18.9 114.07-16.4 114.74-13.9 114.54-11.25L114.54-11.25 95.44-11.25Q95.54-8.15 96.82-6.35 98.09-4.55 99.84-3.83 101.59-3.1 103.09-3.1L103.09-3.1Q105.19-3.1 106.62-3.78 108.04-4.45 108.89-5.55L108.89-5.55 112.94-4.35Q111.59-2.2 109.09-0.8 106.59 0.6 103.09 0.6ZM95.49-14.6L95.49-14.6 110.09-14.6Q110.09-16.35 109.22-17.95 108.34-19.55 106.77-20.58 105.19-21.6 102.99-21.6L102.99-21.6Q101.14-21.6 99.49-20.9 97.84-20.2 96.77-18.65 95.69-17.1 95.49-14.6ZM130.04 0.6L130.04 0.6Q126.14 0.6 123.44-1.13 120.74-2.85 119.32-5.78 117.89-8.7 117.89-12.35L117.89-12.35Q117.89-16.3 119.49-19.18 121.09-22.05 123.82-23.63 126.54-25.2 129.94-25.2L129.94-25.2Q132.89-25.2 135.14-24.03 137.39-22.85 138.87-20.88 140.34-18.9 141.02-16.4 141.69-13.9 141.49-11.25L141.49-11.25 122.39-11.25Q122.49-8.15 123.77-6.35 125.04-4.55 126.79-3.83 128.54-3.1 130.04-3.1L130.04-3.1Q132.14-3.1 133.56-3.78 134.99-4.45 135.84-5.55L135.84-5.55 139.89-4.35Q138.54-2.2 136.04-0.8 133.54 0.6 130.04 0.6ZM122.44-14.6L122.44-14.6 137.04-14.6Q137.04-16.35 136.17-17.95 135.29-19.55 133.72-20.58 132.14-21.6 129.94-21.6L129.94-21.6Q128.09-21.6 126.44-20.9 124.79-20.2 123.72-18.65 122.64-17.1 122.44-14.6ZM157.14 0L153.99 0Q151.64 0 150.36-0.48 149.09-0.95 148.61-2.3 148.14-3.65 148.14-6.2L148.14-6.2 148.14-21.45 143.94-21.45 143.94-24.8 148.14-24.8 148.14-31.05 152.34-31.05 152.34-24.8 157.14-24.8 157.14-21.45 152.34-21.45 152.34-6.9Q152.34-5 152.71-4.35 153.09-3.7 154.89-3.7L154.89-3.7 157.14-3.7 157.14 0Z" opacity="1" transform="matrix(1,0,0,1,0,0)" fill="#ffffff" class="wordmark-text-0" data-fill-palette-color="primary" id="text-0"></path></svg></g></svg></g></svg></g></svg></g><g><svg viewBox="0 0 153.9917568 105.8693328" height="105.8693328" width="153.9917568"><g><svg xmlns="http://www.w3.org/2000/svg" xmlns:xlink="http://www.w3.org/1999/xlink" version="1.1" x="0" y="0" viewBox="0 5 32 22" enable-background="new 0 0 32 32" xml:space="preserve" height="105.8693328" width="153.9917568" class="icon-icon-0" data-fill-palette-color="accent" id="icon-0"><path fill="#10b981" d="M30 6H29.113C28.588 6 28.084 6.207 27.709 6.576L25 9.248V8A3 3 0 0 0 22 5H3C1.346 5 0 6.345 0 8V24A3 3 0 0 0 3 27H22C23.656 27 25 25.656 25 24V22.779L27.709 25.451C28.084 25.82 28.588 26.027 29.113 26.027H30A2 2 0 0 0 32 24.027V8A2 2 0 0 0 30 6M3 25C2.448 25 2 24.551 2 24V8A1 1 0 0 1 3 7H22C22.551 7 23 7.448 23 8V24C23 24.551 22.551 25 22 25zM30 24.027H29L25 20.027V20L24 19V13L29 8H30z" data-fill-palette-color="accent"></path></svg></g></svg></g></svg></g><defs></defs></svg><rect width="395.52" height="73.25080065809837" fill="none" stroke="none" visibility="hidden"></rect></g></svg></g></svg>