<svg xmlns="http://www.w3.org/2000/svg" version="1.1" xmlns:xlink="http://www.w3.org/1999/xlink" xmlns:svgjs="http://svgjs.dev/svgjs" width="128" height="128" viewBox="0 0 128 128"><g transform="matrix(0.8046875,0,0,0.8046875,10.435903368171914,25.630059531721876)"><svg viewBox="0 0 99 70" data-background-color="#1d366f" preserveAspectRatio="xMidYMid meet" height="90" width="128" xmlns="http://www.w3.org/2000/svg" xmlns:xlink="http://www.w3.org/1999/xlink"><g id="tight-bounds" transform="matrix(1,0,0,1,2.068480633218371,2.178406233668582)"><svg viewBox="0 0 95.481 65.6431875" height="65.6431875" width="95.481"><g><svg viewBox="0 0 95.481 65.6431875" height="65.6431875" width="95.481"><g><svg viewBox="0 0 95.481 65.6431875" height="65.6431875" width="95.481"><g id="textblocktransform"><svg viewBox="0 0 95.481 65.6431875" height="65.6431875" width="95.481" id="textblock"><g><svg viewBox="0 0 95.481 65.6431875" height="65.6431875" width="95.481"><g><svg viewBox="0 0 95.481 65.6431875" height="65.6431875" width="95.481"><g><svg xmlns="http://www.w3.org/2000/svg" xmlns:xlink="http://www.w3.org/1999/xlink" version="1.1" x="0" y="0" viewBox="0 5 32 22" enable-background="new 0 0 32 32" xml:space="preserve" height="65.6431875" width="95.481" class="icon-icon-0" data-fill-palette-color="accent" id="icon-0"><path fill="#10b981" d="M30 6H29.113C28.588 6 28.084 6.207 27.709 6.576L25 9.248V8A3 3 0 0 0 22 5H3C1.346 5 0 6.345 0 8V24A3 3 0 0 0 3 27H22C23.656 27 25 25.656 25 24V22.779L27.709 25.451C28.084 25.82 28.588 26.027 29.113 26.027H30A2 2 0 0 0 32 24.027V8A2 2 0 0 0 30 6M3 25C2.448 25 2 24.551 2 24V8A1 1 0 0 1 3 7H22C22.551 7 23 7.448 23 8V24C23 24.551 22.551 25 22 25zM30 24.027H29L25 20.027V20L24 19V13L29 8H30z" data-fill-palette-color="accent"></path></svg></g></svg></g></svg></g></svg></g></svg></g></svg></g><defs></defs></svg><rect width="95.481" height="65.6431875" fill="none" stroke="none" visibility="hidden"></rect></g></svg></g></svg>